<?xml version="1.0" encoding="iso-8859-1"?>
<svg version="1.1" id="Layer_1" xmlns="http://www.w3.org/2000/svg" xmlns:xlink="http://www.w3.org/1999/xlink" x="0px" y="0px"
	 viewBox="0 0 512.001 512.001" style="enable-background:new 0 0 512.001 512.001;" xml:space="preserve">
<g>
	<g>
		<g>
			<path d="M496.545,48.903c-5.044-17.298-18.293-30.67-35.44-35.771C431.808,4.418,400.748,0,368.79,0
				c-46.659,0-94.784,9.641-139.175,27.88c-45.277,18.604-86.882,46.289-120.319,80.061
				c-40.432,40.837-70.341,91.622-88.066,145.988c-0.319,0.668-0.546,1.367-0.675,2.082c-7.392,23.117-12.585,46.863-15.447,70.756
				c-0.14,0.606-0.218,1.224-0.22,1.843c-5.216,45.468-1.992,91.414,10.566,134.486c5.043,17.298,18.292,30.67,35.441,35.771
				c29.293,8.713,60.352,13.131,92.316,13.133c0.006,0,0.01,0,0.015,0c13.632,0,27.39-0.847,41.143-2.467
				c0.455-0.015,0.911-0.064,1.359-0.154c23.951-2.914,47.874-8.229,71.086-15.835c0.065-0.019,0.13-0.041,0.195-0.062
				c8.567-2.813,17.039-5.935,25.377-9.361c45.275-18.604,86.881-46.29,120.319-80.062c40.463-40.869,70.386-91.701,88.107-146.113
				c0.256-0.572,0.452-1.165,0.572-1.771c7.466-23.307,12.699-47.254,15.557-71.348c0.045-0.263,0.078-0.528,0.098-0.794
				C512.36,138.355,509.163,92.179,496.545,48.903z M143.211,495.465c-30.366-0.001-59.84-4.189-87.602-12.447
				c-11.74-3.491-20.818-12.669-24.281-24.55c-10.425-35.757-14.096-73.599-11.575-111.417l146.138,147.605
				C158.333,495.176,150.768,495.465,143.211,495.465z M187.062,492.537L21.845,325.661c2.264-17.664,5.856-35.235,10.731-52.497
				l206.382,208.452C221.929,486.547,204.562,490.223,187.062,492.537z M390.953,392.424
				c-37.054,37.427-83.784,66.08-134.296,83.565L38.132,255.273c17.079-50.496,45.209-97.615,82.914-135.698
				c37.039-37.41,83.746-66.055,134.238-83.542l218.563,220.755C456.766,307.262,428.643,354.357,390.953,392.424z M492.264,164.649
				c-11.569-11.969-19.757-20.106-34.705-34.651c-3.274-3.185-8.509-3.112-11.69,0.16c-3.185,3.273-3.113,8.507,0.16,11.691
				c18.638,18.136,26.673,26.219,44.129,44.474c-2.268,17.69-5.866,35.288-10.752,52.575L272.98,30.404
				c17.048-4.94,34.434-8.623,51.953-10.94c24.864,24.474,59.536,59.518,82.069,82.971c1.624,1.69,3.791,2.54,5.963,2.54
				c2.06,0,4.124-0.765,5.727-2.306c3.293-3.164,3.397-8.398,0.234-11.689c-19.798-20.606-48.931-50.127-72.629-73.645
				c7.496-0.513,14.997-0.798,22.492-0.798c30.362-0.001,59.835,4.187,87.602,12.445c11.739,3.491,20.817,12.669,24.28,24.55
				C491.069,89.194,494.745,126.93,492.264,164.649z"/>
			<path d="M250.101,210.741l19.536,19.732l-27.369,27.643l-19.42-19.615c-3.212-3.244-8.448-3.271-11.691-0.058
				c-3.244,3.212-3.271,8.447-0.058,11.691l19.536,19.732l-27.369,27.643l-19.42-19.615c-3.212-3.244-8.447-3.272-11.691-0.058
				c-3.244,3.212-3.271,8.447-0.058,11.691l19.536,19.732l-10.637,10.742c-3.213,3.244-3.187,8.479,0.058,11.691
				c1.612,1.596,3.715,2.392,5.817,2.392c2.13,0,4.258-0.818,5.875-2.451l10.52-10.625l19.421,19.615
				c1.617,1.633,3.746,2.451,5.875,2.451c2.102,0,4.204-0.797,5.816-2.392c3.244-3.212,3.271-8.447,0.058-11.691l-19.537-19.733
				l27.369-27.643l19.42,19.615c1.617,1.633,3.746,2.451,5.875,2.451c2.102,0,4.204-0.797,5.816-2.392
				c3.245-3.212,3.272-8.447,0.06-11.691l-19.537-19.733l27.369-27.643l19.42,19.615c1.617,1.633,3.746,2.451,5.875,2.451
				c2.102,0,4.204-0.797,5.816-2.392c3.245-3.212,3.272-8.447,0.06-11.691l-19.537-19.733l27.369-27.642l19.42,19.615
				c1.617,1.633,3.746,2.451,5.875,2.451c2.102,0,4.204-0.797,5.816-2.392c3.245-3.212,3.272-8.447,0.06-11.691l-19.535-19.73
				l9.019-9.11c3.212-3.244,3.187-8.479-0.06-11.691c-3.243-3.212-8.478-3.187-11.691,0.058l-8.904,8.993l-19.42-19.614
				c-3.213-3.245-8.447-3.271-11.691-0.058c-3.245,3.212-3.272,8.447-0.06,11.691l19.536,19.732l-27.368,27.642l-19.42-19.615
				c-3.213-3.245-8.447-3.271-11.693-0.058C246.915,202.261,246.889,207.496,250.101,210.741z"/>
		</g>
	</g>
</g>
</svg>
